<?xml version="1.0" encoding="utf-8" standalone="no"?>
<!DOCTYPE svg PUBLIC "-//W3C//DTD SVG 1.1//EN"
  "http://www.w3.org/Graphics/SVG/1.1/DTD/svg11.dtd">
<svg xmlns:xlink="http://www.w3.org/1999/xlink" width="576pt" height="360pt" viewBox="0 0 576 360" xmlns="http://www.w3.org/2000/svg" version="1.1">
 <metadata>
  <rdf:RDF xmlns:dc="http://purl.org/dc/elements/1.1/" xmlns:cc="http://creativecommons.org/ns#" xmlns:rdf="http://www.w3.org/1999/02/22-rdf-syntax-ns#">
   <cc:Work>
    <dc:type rdf:resource="http://purl.org/dc/dcmitype/StillImage"/>
    <dc:date>2025-03-17T10:01:56.879145</dc:date>
    <dc:format>image/svg+xml</dc:format>
    <dc:creator>
     <cc:Agent>
      <dc:title>Matplotlib v3.10.1, https://matplotlib.org/</dc:title>
     </cc:Agent>
    </dc:creator>
   </cc:Work>
  </rdf:RDF>
 </metadata>
 <defs>
  <style type="text/css">*{stroke-linejoin: round; stroke-linecap: butt}</style>
 </defs>
 <g id="figure_1">
  <g id="patch_1">
   <path d="M 0 360 
L 576 360 
L 576 0 
L 0 0 
z
" style="fill: #ffffff"/>
  </g>
  <g id="axes_1">
   <g id="patch_2">
    <path d="M 72 320.4 
L 518.4 320.4 
L 518.4 43.2 
L 72 43.2 
z
" style="fill: #ffffff"/>
   </g>
   <g id="matplotlib.axis_1">
    <g id="xtick_1">
     <g id="line2d_1">
      <path d="M 91.613416 320.4 
L 91.613416 43.2 
" clip-path="url(#pa281e88910)" style="fill: none; stroke: #cccccc; stroke-linecap: round"/>
     </g>
     <g id="text_1">
      <!-- 0.0M -->
      <g style="fill: #262626" transform="translate(78.121229 338.258281) scale(0.11 -0.11)">
       <defs>
        <path id="DejaVuSans-30" d="M 2034 4250 
Q 1547 4250 1301 3770 
Q 1056 3291 1056 2328 
Q 1056 1369 1301 889 
Q 1547 409 2034 409 
Q 2525 409 2770 889 
Q 3016 1369 3016 2328 
Q 3016 3291 2770 3770 
Q 2525 4250 2034 4250 
z
M 2034 4750 
Q 2819 4750 3233 4129 
Q 3647 3509 3647 2328 
Q 3647 1150 3233 529 
Q 2819 -91 2034 -91 
Q 1250 -91 836 529 
Q 422 1150 422 2328 
Q 422 3509 836 4129 
Q 1250 4750 2034 4750 
z
" transform="scale(0.015625)"/>
        <path id="DejaVuSans-2e" d="M 684 794 
L 1344 794 
L 1344 0 
L 684 0 
L 684 794 
z
" transform="scale(0.015625)"/>
        <path id="DejaVuSans-4d" d="M 628 4666 
L 1569 4666 
L 2759 1491 
L 3956 4666 
L 4897 4666 
L 4897 0 
L 4281 0 
L 4281 4097 
L 3078 897 
L 2444 897 
L 1241 4097 
L 1241 0 
L 628 0 
L 628 4666 
z
" transform="scale(0.015625)"/>
       </defs>
       <use xlink:href="#DejaVuSans-30"/>
       <use xlink:href="#DejaVuSans-2e" transform="translate(63.623047 0)"/>
       <use xlink:href="#DejaVuSans-30" transform="translate(95.410156 0)"/>
       <use xlink:href="#DejaVuSans-4d" transform="translate(159.033203 0)"/>
      </g>
     </g>
    </g>
    <g id="xtick_2">
     <g id="line2d_2">
      <path d="M 157.774822 320.4 
L 157.774822 43.2 
" clip-path="url(#pa281e88910)" style="fill: none; stroke: #cccccc; stroke-linecap: round"/>
     </g>
     <g id="text_2">
      <!-- 0.2M -->
      <g style="fill: #262626" transform="translate(144.282634 338.258281) scale(0.11 -0.11)">
       <defs>
        <path id="DejaVuSans-32" d="M 1228 531 
L 3431 531 
L 3431 0 
L 469 0 
L 469 531 
Q 828 903 1448 1529 
Q 2069 2156 2228 2338 
Q 2531 2678 2651 2914 
Q 2772 3150 2772 3378 
Q 2772 3750 2511 3984 
Q 2250 4219 1831 4219 
Q 1534 4219 1204 4116 
Q 875 4013 500 3803 
L 500 4441 
Q 881 4594 1212 4672 
Q 1544 4750 1819 4750 
Q 2544 4750 2975 4387 
Q 3406 4025 3406 3419 
Q 3406 3131 3298 2873 
Q 3191 2616 2906 2266 
Q 2828 2175 2409 1742 
Q 1991 1309 1228 531 
z
" transform="scale(0.015625)"/>
       </defs>
       <use xlink:href="#DejaVuSans-30"/>
       <use xlink:href="#DejaVuSans-2e" transform="translate(63.623047 0)"/>
       <use xlink:href="#DejaVuSans-32" transform="translate(95.410156 0)"/>
       <use xlink:href="#DejaVuSans-4d" transform="translate(159.033203 0)"/>
      </g>
     </g>
    </g>
    <g id="xtick_3">
     <g id="line2d_3">
      <path d="M 223.936227 320.4 
L 223.936227 43.2 
" clip-path="url(#pa281e88910)" style="fill: none; stroke: #cccccc; stroke-linecap: round"/>
     </g>
     <g id="text_3">
      <!-- 0.4M -->
      <g style="fill: #262626" transform="translate(210.44404 338.258281) scale(0.11 -0.11)">
       <defs>
        <path id="DejaVuSans-34" d="M 2419 4116 
L 825 1625 
L 2419 1625 
L 2419 4116 
z
M 2253 4666 
L 3047 4666 
L 3047 1625 
L 3713 1625 
L 3713 1100 
L 3047 1100 
L 3047 0 
L 2419 0 
L 2419 1100 
L 313 1100 
L 313 1709 
L 2253 4666 
z
" transform="scale(0.015625)"/>
       </defs>
       <use xlink:href="#DejaVuSans-30"/>
       <use xlink:href="#DejaVuSans-2e" transform="translate(63.623047 0)"/>
       <use xlink:href="#DejaVuSans-34" transform="translate(95.410156 0)"/>
       <use xlink:href="#DejaVuSans-4d" transform="translate(159.033203 0)"/>
      </g>
     </g>
    </g>
    <g id="xtick_4">
     <g id="line2d_4">
      <path d="M 290.097632 320.4 
L 290.097632 43.2 
" clip-path="url(#pa281e88910)" style="fill: none; stroke: #cccccc; stroke-linecap: round"/>
     </g>
     <g id="text_4">
      <!-- 0.6M -->
      <g style="fill: #262626" transform="translate(276.605445 338.258281) scale(0.11 -0.11)">
       <defs>
        <path id="DejaVuSans-36" d="M 2113 2584 
Q 1688 2584 1439 2293 
Q 1191 2003 1191 1497 
Q 1191 994 1439 701 
Q 1688 409 2113 409 
Q 2538 409 2786 701 
Q 3034 994 3034 1497 
Q 3034 2003 2786 2293 
Q 2538 2584 2113 2584 
z
M 3366 4563 
L 3366 3988 
Q 3128 4100 2886 4159 
Q 2644 4219 2406 4219 
Q 1781 4219 1451 3797 
Q 1122 3375 1075 2522 
Q 1259 2794 1537 2939 
Q 1816 3084 2150 3084 
Q 2853 3084 3261 2657 
Q 3669 2231 3669 1497 
Q 3669 778 3244 343 
Q 2819 -91 2113 -91 
Q 1303 -91 875 529 
Q 447 1150 447 2328 
Q 447 3434 972 4092 
Q 1497 4750 2381 4750 
Q 2619 4750 2861 4703 
Q 3103 4656 3366 4563 
z
" transform="scale(0.015625)"/>
       </defs>
       <use xlink:href="#DejaVuSans-30"/>
       <use xlink:href="#DejaVuSans-2e" transform="translate(63.623047 0)"/>
       <use xlink:href="#DejaVuSans-36" transform="translate(95.410156 0)"/>
       <use xlink:href="#DejaVuSans-4d" transform="translate(159.033203 0)"/>
      </g>
     </g>
    </g>
    <g id="xtick_5">
     <g id="line2d_5">
      <path d="M 356.259038 320.4 
L 356.259038 43.2 
" clip-path="url(#pa281e88910)" style="fill: none; stroke: #cccccc; stroke-linecap: round"/>
     </g>
     <g id="text_5">
      <!-- 0.8M -->
      <g style="fill: #262626" transform="translate(342.76685 338.258281) scale(0.11 -0.11)">
       <defs>
        <path id="DejaVuSans-38" d="M 2034 2216 
Q 1584 2216 1326 1975 
Q 1069 1734 1069 1313 
Q 1069 891 1326 650 
Q 1584 409 2034 409 
Q 2484 409 2743 651 
Q 3003 894 3003 1313 
Q 3003 1734 2745 1975 
Q 2488 2216 2034 2216 
z
M 1403 2484 
Q 997 2584 770 2862 
Q 544 3141 544 3541 
Q 544 4100 942 4425 
Q 1341 4750 2034 4750 
Q 2731 4750 3128 4425 
Q 3525 4100 3525 3541 
Q 3525 3141 3298 2862 
Q 3072 2584 2669 2484 
Q 3125 2378 3379 2068 
Q 3634 1759 3634 1313 
Q 3634 634 3220 271 
Q 2806 -91 2034 -91 
Q 1263 -91 848 271 
Q 434 634 434 1313 
Q 434 1759 690 2068 
Q 947 2378 1403 2484 
z
M 1172 3481 
Q 1172 3119 1398 2916 
Q 1625 2713 2034 2713 
Q 2441 2713 2670 2916 
Q 2900 3119 2900 3481 
Q 2900 3844 2670 4047 
Q 2441 4250 2034 4250 
Q 1625 4250 1398 4047 
Q 1172 3844 1172 3481 
z
" transform="scale(0.015625)"/>
       </defs>
       <use xlink:href="#DejaVuSans-30"/>
       <use xlink:href="#DejaVuSans-2e" transform="translate(63.623047 0)"/>
       <use xlink:href="#DejaVuSans-38" transform="translate(95.410156 0)"/>
       <use xlink:href="#DejaVuSans-4d" transform="translate(159.033203 0)"/>
      </g>
     </g>
    </g>
    <g id="xtick_6">
     <g id="line2d_6">
      <path d="M 422.420443 320.4 
L 422.420443 43.2 
" clip-path="url(#pa281e88910)" style="fill: none; stroke: #cccccc; stroke-linecap: round"/>
     </g>
     <g id="text_6">
      <!-- 1.0M -->
      <g style="fill: #262626" transform="translate(408.928256 338.258281) scale(0.11 -0.11)">
       <defs>
        <path id="DejaVuSans-31" d="M 794 531 
L 1825 531 
L 1825 4091 
L 703 3866 
L 703 4441 
L 1819 4666 
L 2450 4666 
L 2450 531 
L 3481 531 
L 3481 0 
L 794 0 
L 794 531 
z
" transform="scale(0.015625)"/>
       </defs>
       <use xlink:href="#DejaVuSans-31"/>
       <use xlink:href="#DejaVuSans-2e" transform="translate(63.623047 0)"/>
       <use xlink:href="#DejaVuSans-30" transform="translate(95.410156 0)"/>
       <use xlink:href="#DejaVuSans-4d" transform="translate(159.033203 0)"/>
      </g>
     </g>
    </g>
    <g id="xtick_7">
     <g id="line2d_7">
      <path d="M 488.581849 320.4 
L 488.581849 43.2 
" clip-path="url(#pa281e88910)" style="fill: none; stroke: #cccccc; stroke-linecap: round"/>
     </g>
     <g id="text_7">
      <!-- 1.2M -->
      <g style="fill: #262626" transform="translate(475.089661 338.258281) scale(0.11 -0.11)">
       <use xlink:href="#DejaVuSans-31"/>
       <use xlink:href="#DejaVuSans-2e" transform="translate(63.623047 0)"/>
       <use xlink:href="#DejaVuSans-32" transform="translate(95.410156 0)"/>
       <use xlink:href="#DejaVuSans-4d" transform="translate(159.033203 0)"/>
      </g>
     </g>
    </g>
    <g id="text_8">
     <!-- Step -->
     <g style="fill: #262626" transform="translate(281.537812 353.664062) scale(0.12 -0.12)">
      <defs>
       <path id="DejaVuSans-53" d="M 3425 4513 
L 3425 3897 
Q 3066 4069 2747 4153 
Q 2428 4238 2131 4238 
Q 1616 4238 1336 4038 
Q 1056 3838 1056 3469 
Q 1056 3159 1242 3001 
Q 1428 2844 1947 2747 
L 2328 2669 
Q 3034 2534 3370 2195 
Q 3706 1856 3706 1288 
Q 3706 609 3251 259 
Q 2797 -91 1919 -91 
Q 1588 -91 1214 -16 
Q 841 59 441 206 
L 441 856 
Q 825 641 1194 531 
Q 1563 422 1919 422 
Q 2459 422 2753 634 
Q 3047 847 3047 1241 
Q 3047 1584 2836 1778 
Q 2625 1972 2144 2069 
L 1759 2144 
Q 1053 2284 737 2584 
Q 422 2884 422 3419 
Q 422 4038 858 4394 
Q 1294 4750 2059 4750 
Q 2388 4750 2728 4690 
Q 3069 4631 3425 4513 
z
" transform="scale(0.015625)"/>
       <path id="DejaVuSans-74" d="M 1172 4494 
L 1172 3500 
L 2356 3500 
L 2356 3053 
L 1172 3053 
L 1172 1153 
Q 1172 725 1289 603 
Q 1406 481 1766 481 
L 2356 481 
L 2356 0 
L 1766 0 
Q 1100 0 847 248 
Q 594 497 594 1153 
L 594 3053 
L 172 3053 
L 172 3500 
L 594 3500 
L 594 4494 
L 1172 4494 
z
" transform="scale(0.015625)"/>
       <path id="DejaVuSans-65" d="M 3597 1894 
L 3597 1613 
L 953 1613 
Q 991 1019 1311 708 
Q 1631 397 2203 397 
Q 2534 397 2845 478 
Q 3156 559 3463 722 
L 3463 178 
Q 3153 47 2828 -22 
Q 2503 -91 2169 -91 
Q 1331 -91 842 396 
Q 353 884 353 1716 
Q 353 2575 817 3079 
Q 1281 3584 2069 3584 
Q 2775 3584 3186 3129 
Q 3597 2675 3597 1894 
z
M 3022 2063 
Q 3016 2534 2758 2815 
Q 2500 3097 2075 3097 
Q 1594 3097 1305 2825 
Q 1016 2553 972 2059 
L 3022 2063 
z
" transform="scale(0.015625)"/>
       <path id="DejaVuSans-70" d="M 1159 525 
L 1159 -1331 
L 581 -1331 
L 581 3500 
L 1159 3500 
L 1159 2969 
Q 1341 3281 1617 3432 
Q 1894 3584 2278 3584 
Q 2916 3584 3314 3078 
Q 3713 2572 3713 1747 
Q 3713 922 3314 415 
Q 2916 -91 2278 -91 
Q 1894 -91 1617 61 
Q 1341 213 1159 525 
z
M 3116 1747 
Q 3116 2381 2855 2742 
Q 2594 3103 2138 3103 
Q 1681 3103 1420 2742 
Q 1159 2381 1159 1747 
Q 1159 1113 1420 752 
Q 1681 391 2138 391 
Q 2594 391 2855 752 
Q 3116 1113 3116 1747 
z
" transform="scale(0.015625)"/>
      </defs>
      <use xlink:href="#DejaVuSans-53"/>
      <use xlink:href="#DejaVuSans-74" transform="translate(63.476562 0)"/>
      <use xlink:href="#DejaVuSans-65" transform="translate(102.685547 0)"/>
      <use xlink:href="#DejaVuSans-70" transform="translate(164.208984 0)"/>
     </g>
    </g>
   </g>
   <g id="matplotlib.axis_2">
    <g id="ytick_1">
     <g id="line2d_8">
      <path d="M 72 297.950492 
L 518.4 297.950492 
" clip-path="url(#pa281e88910)" style="fill: none; stroke: #cccccc; stroke-linecap: round"/>
     </g>
     <g id="text_9">
      <!-- 1000 -->
      <g style="fill: #262626" transform="translate(34.505 302.129633) scale(0.11 -0.11)">
       <use xlink:href="#DejaVuSans-31"/>
       <use xlink:href="#DejaVuSans-30" transform="translate(63.623047 0)"/>
       <use xlink:href="#DejaVuSans-30" transform="translate(127.246094 0)"/>
       <use xlink:href="#DejaVuSans-30" transform="translate(190.869141 0)"/>
      </g>
     </g>
    </g>
    <g id="ytick_2">
     <g id="line2d_9">
      <path d="M 72 251.599868 
L 518.4 251.599868 
" clip-path="url(#pa281e88910)" style="fill: none; stroke: #cccccc; stroke-linecap: round"/>
     </g>
     <g id="text_10">
      <!-- 2000 -->
      <g style="fill: #262626" transform="translate(34.505 255.779009) scale(0.11 -0.11)">
       <use xlink:href="#DejaVuSans-32"/>
       <use xlink:href="#DejaVuSans-30" transform="translate(63.623047 0)"/>
       <use xlink:href="#DejaVuSans-30" transform="translate(127.246094 0)"/>
       <use xlink:href="#DejaVuSans-30" transform="translate(190.869141 0)"/>
      </g>
     </g>
    </g>
    <g id="ytick_3">
     <g id="line2d_10">
      <path d="M 72 205.249244 
L 518.4 205.249244 
" clip-path="url(#pa281e88910)" style="fill: none; stroke: #cccccc; stroke-linecap: round"/>
     </g>
     <g id="text_11">
      <!-- 3000 -->
      <g style="fill: #262626" transform="translate(34.505 209.428385) scale(0.11 -0.11)">
       <defs>
        <path id="DejaVuSans-33" d="M 2597 2516 
Q 3050 2419 3304 2112 
Q 3559 1806 3559 1356 
Q 3559 666 3084 287 
Q 2609 -91 1734 -91 
Q 1441 -91 1130 -33 
Q 819 25 488 141 
L 488 750 
Q 750 597 1062 519 
Q 1375 441 1716 441 
Q 2309 441 2620 675 
Q 2931 909 2931 1356 
Q 2931 1769 2642 2001 
Q 2353 2234 1838 2234 
L 1294 2234 
L 1294 2753 
L 1863 2753 
Q 2328 2753 2575 2939 
Q 2822 3125 2822 3475 
Q 2822 3834 2567 4026 
Q 2313 4219 1838 4219 
Q 1578 4219 1281 4162 
Q 984 4106 628 3988 
L 628 4550 
Q 988 4650 1302 4700 
Q 1616 4750 1894 4750 
Q 2613 4750 3031 4423 
Q 3450 4097 3450 3541 
Q 3450 3153 3228 2886 
Q 3006 2619 2597 2516 
z
" transform="scale(0.015625)"/>
       </defs>
       <use xlink:href="#DejaVuSans-33"/>
       <use xlink:href="#DejaVuSans-30" transform="translate(63.623047 0)"/>
       <use xlink:href="#DejaVuSans-30" transform="translate(127.246094 0)"/>
       <use xlink:href="#DejaVuSans-30" transform="translate(190.869141 0)"/>
      </g>
     </g>
    </g>
    <g id="ytick_4">
     <g id="line2d_11">
      <path d="M 72 158.89862 
L 518.4 158.89862 
" clip-path="url(#pa281e88910)" style="fill: none; stroke: #cccccc; stroke-linecap: round"/>
     </g>
     <g id="text_12">
      <!-- 4000 -->
      <g style="fill: #262626" transform="translate(34.505 163.077761) scale(0.11 -0.11)">
       <use xlink:href="#DejaVuSans-34"/>
       <use xlink:href="#DejaVuSans-30" transform="translate(63.623047 0)"/>
       <use xlink:href="#DejaVuSans-30" transform="translate(127.246094 0)"/>
       <use xlink:href="#DejaVuSans-30" transform="translate(190.869141 0)"/>
      </g>
     </g>
    </g>
    <g id="ytick_5">
     <g id="line2d_12">
      <path d="M 72 112.547996 
L 518.4 112.547996 
" clip-path="url(#pa281e88910)" style="fill: none; stroke: #cccccc; stroke-linecap: round"/>
     </g>
     <g id="text_13">
      <!-- 5000 -->
      <g style="fill: #262626" transform="translate(34.505 116.727137) scale(0.11 -0.11)">
       <defs>
        <path id="DejaVuSans-35" d="M 691 4666 
L 3169 4666 
L 3169 4134 
L 1269 4134 
L 1269 2991 
Q 1406 3038 1543 3061 
Q 1681 3084 1819 3084 
Q 2600 3084 3056 2656 
Q 3513 2228 3513 1497 
Q 3513 744 3044 326 
Q 2575 -91 1722 -91 
Q 1428 -91 1123 -41 
Q 819 9 494 109 
L 494 744 
Q 775 591 1075 516 
Q 1375 441 1709 441 
Q 2250 441 2565 725 
Q 2881 1009 2881 1497 
Q 2881 1984 2565 2268 
Q 2250 2553 1709 2553 
Q 1456 2553 1204 2497 
Q 953 2441 691 2322 
L 691 4666 
z
" transform="scale(0.015625)"/>
       </defs>
       <use xlink:href="#DejaVuSans-35"/>
       <use xlink:href="#DejaVuSans-30" transform="translate(63.623047 0)"/>
       <use xlink:href="#DejaVuSans-30" transform="translate(127.246094 0)"/>
       <use xlink:href="#DejaVuSans-30" transform="translate(190.869141 0)"/>
      </g>
     </g>
    </g>
    <g id="ytick_6">
     <g id="line2d_13">
      <path d="M 72 66.197372 
L 518.4 66.197372 
" clip-path="url(#pa281e88910)" style="fill: none; stroke: #cccccc; stroke-linecap: round"/>
     </g>
     <g id="text_14">
      <!-- 6000 -->
      <g style="fill: #262626" transform="translate(34.505 70.376513) scale(0.11 -0.11)">
       <use xlink:href="#DejaVuSans-36"/>
       <use xlink:href="#DejaVuSans-30" transform="translate(63.623047 0)"/>
       <use xlink:href="#DejaVuSans-30" transform="translate(127.246094 0)"/>
       <use xlink:href="#DejaVuSans-30" transform="translate(190.869141 0)"/>
      </g>
     </g>
    </g>
    <g id="text_15">
     <!-- Elo Rating -->
     <g style="fill: #262626" transform="translate(28.009375 212.177812) rotate(-90) scale(0.12 -0.12)">
      <defs>
       <path id="DejaVuSans-45" d="M 628 4666 
L 3578 4666 
L 3578 4134 
L 1259 4134 
L 1259 2753 
L 3481 2753 
L 3481 2222 
L 1259 2222 
L 1259 531 
L 3634 531 
L 3634 0 
L 628 0 
L 628 4666 
z
" transform="scale(0.015625)"/>
       <path id="DejaVuSans-6c" d="M 603 4863 
L 1178 4863 
L 1178 0 
L 603 0 
L 603 4863 
z
" transform="scale(0.015625)"/>
       <path id="DejaVuSans-6f" d="M 1959 3097 
Q 1497 3097 1228 2736 
Q 959 2375 959 1747 
Q 959 1119 1226 758 
Q 1494 397 1959 397 
Q 2419 397 2687 759 
Q 2956 1122 2956 1747 
Q 2956 2369 2687 2733 
Q 2419 3097 1959 3097 
z
M 1959 3584 
Q 2709 3584 3137 3096 
Q 3566 2609 3566 1747 
Q 3566 888 3137 398 
Q 2709 -91 1959 -91 
Q 1206 -91 779 398 
Q 353 888 353 1747 
Q 353 2609 779 3096 
Q 1206 3584 1959 3584 
z
" transform="scale(0.015625)"/>
       <path id="DejaVuSans-20" transform="scale(0.015625)"/>
       <path id="DejaVuSans-52" d="M 2841 2188 
Q 3044 2119 3236 1894 
Q 3428 1669 3622 1275 
L 4263 0 
L 3584 0 
L 2988 1197 
Q 2756 1666 2539 1819 
Q 2322 1972 1947 1972 
L 1259 1972 
L 1259 0 
L 628 0 
L 628 4666 
L 2053 4666 
Q 2853 4666 3247 4331 
Q 3641 3997 3641 3322 
Q 3641 2881 3436 2590 
Q 3231 2300 2841 2188 
z
M 1259 4147 
L 1259 2491 
L 2053 2491 
Q 2509 2491 2742 2702 
Q 2975 2913 2975 3322 
Q 2975 3731 2742 3939 
Q 2509 4147 2053 4147 
L 1259 4147 
z
" transform="scale(0.015625)"/>
       <path id="DejaVuSans-61" d="M 2194 1759 
Q 1497 1759 1228 1600 
Q 959 1441 959 1056 
Q 959 750 1161 570 
Q 1363 391 1709 391 
Q 2188 391 2477 730 
Q 2766 1069 2766 1631 
L 2766 1759 
L 2194 1759 
z
M 3341 1997 
L 3341 0 
L 2766 0 
L 2766 531 
Q 2569 213 2275 61 
Q 1981 -91 1556 -91 
Q 1019 -91 701 211 
Q 384 513 384 1019 
Q 384 1609 779 1909 
Q 1175 2209 1959 2209 
L 2766 2209 
L 2766 2266 
Q 2766 2663 2505 2880 
Q 2244 3097 1772 3097 
Q 1472 3097 1187 3025 
Q 903 2953 641 2809 
L 641 3341 
Q 956 3463 1253 3523 
Q 1550 3584 1831 3584 
Q 2591 3584 2966 3190 
Q 3341 2797 3341 1997 
z
" transform="scale(0.015625)"/>
       <path id="DejaVuSans-69" d="M 603 3500 
L 1178 3500 
L 1178 0 
L 603 0 
L 603 3500 
z
M 603 4863 
L 1178 4863 
L 1178 4134 
L 603 4134 
L 603 4863 
z
" transform="scale(0.015625)"/>
       <path id="DejaVuSans-6e" d="M 3513 2113 
L 3513 0 
L 2938 0 
L 2938 2094 
Q 2938 2591 2744 2837 
Q 2550 3084 2163 3084 
Q 1697 3084 1428 2787 
Q 1159 2491 1159 1978 
L 1159 0 
L 581 0 
L 581 3500 
L 1159 3500 
L 1159 2956 
Q 1366 3272 1645 3428 
Q 1925 3584 2291 3584 
Q 2894 3584 3203 3211 
Q 3513 2838 3513 2113 
z
" transform="scale(0.015625)"/>
       <path id="DejaVuSans-67" d="M 2906 1791 
Q 2906 2416 2648 2759 
Q 2391 3103 1925 3103 
Q 1463 3103 1205 2759 
Q 947 2416 947 1791 
Q 947 1169 1205 825 
Q 1463 481 1925 481 
Q 2391 481 2648 825 
Q 2906 1169 2906 1791 
z
M 3481 434 
Q 3481 -459 3084 -895 
Q 2688 -1331 1869 -1331 
Q 1566 -1331 1297 -1286 
Q 1028 -1241 775 -1147 
L 775 -588 
Q 1028 -725 1275 -790 
Q 1522 -856 1778 -856 
Q 2344 -856 2625 -561 
Q 2906 -266 2906 331 
L 2906 616 
Q 2728 306 2450 153 
Q 2172 0 1784 0 
Q 1141 0 747 490 
Q 353 981 353 1791 
Q 353 2603 747 3093 
Q 1141 3584 1784 3584 
Q 2172 3584 2450 3431 
Q 2728 3278 2906 2969 
L 2906 3500 
L 3481 3500 
L 3481 434 
z
" transform="scale(0.015625)"/>
      </defs>
      <use xlink:href="#DejaVuSans-45"/>
      <use xlink:href="#DejaVuSans-6c" transform="translate(63.183594 0)"/>
      <use xlink:href="#DejaVuSans-6f" transform="translate(90.966797 0)"/>
      <use xlink:href="#DejaVuSans-20" transform="translate(152.148438 0)"/>
      <use xlink:href="#DejaVuSans-52" transform="translate(183.935547 0)"/>
      <use xlink:href="#DejaVuSans-61" transform="translate(251.167969 0)"/>
      <use xlink:href="#DejaVuSans-74" transform="translate(312.447266 0)"/>
      <use xlink:href="#DejaVuSans-69" transform="translate(351.65625 0)"/>
      <use xlink:href="#DejaVuSans-6e" transform="translate(379.439453 0)"/>
      <use xlink:href="#DejaVuSans-67" transform="translate(442.818359 0)"/>
     </g>
    </g>
   </g>
   <g id="line2d_14">
    <path d="M 92.290909 307.8 
L 93.645895 285.672212 
L 94.323387 271.043028 
L 95.00088 260.657244 
L 95.678373 247.259132 
L 96.355866 240.236549 
L 97.710851 222.336865 
L 98.388344 216.822068 
L 99.065837 214.511953 
L 99.74333 206.767691 
L 100.420823 203.663589 
L 101.098315 196.319796 
L 102.453301 185.708748 
L 103.808287 176.957287 
L 104.485779 170.725909 
L 105.163272 169.577804 
L 105.840765 169.348368 
L 106.518258 170.761135 
L 107.19575 168.056576 
L 107.873243 168.711511 
L 108.550736 164.157562 
L 109.228229 164.061616 
L 109.905722 165.092918 
L 110.583214 162.22984 
L 111.260707 161.644895 
L 111.9382 161.965177 
L 113.293186 168.358783 
L 113.970678 168.472342 
L 114.648171 166.456553 
L 115.325664 166.576601 
L 116.003157 168.648474 
L 116.68065 168.27118 
L 117.358142 169.319167 
L 118.035635 167.746491 
L 119.390621 176.077552 
L 120.068114 171.525921 
L 120.745606 169.952317 
L 121.423099 173.19547 
L 122.100592 172.39036 
L 123.455577 167.313112 
L 124.13307 170.799606 
L 124.810563 172.263359 
L 126.165549 164.736481 
L 127.520534 161.359375 
L 128.198027 160.675703 
L 128.87552 158.73732 
L 129.553013 157.921549 
L 130.230505 156.696502 
L 131.585491 156.776689 
L 132.262984 157.16557 
L 132.940477 153.94791 
L 133.617969 148.188381 
L 134.295462 147.934844 
L 134.972955 144.071983 
L 135.650448 143.513921 
L 136.327941 144.890998 
L 137.005433 139.504592 
L 137.682926 138.901107 
L 139.037912 132.910289 
L 139.715404 136.903859 
L 140.392897 139.7039 
L 141.07039 141.175532 
L 141.747883 139.441555 
L 142.425376 136.731898 
L 143.102868 134.737894 
L 143.780361 135.598625 
L 144.457854 132.550608 
L 145.135347 131.005278 
L 145.81284 130.6697 
L 146.490332 131.338076 
L 147.845318 126.827696 
L 148.522811 124.382701 
L 149.200304 123.756504 
L 149.877796 124.66683 
L 150.555289 120.118444 
L 151.232782 117.129755 
L 152.587767 109.495344 
L 153.26526 107.518026 
L 153.942753 107.88605 
L 155.297739 102.714711 
L 155.975231 98.331333 
L 156.652724 97.78903 
L 157.330217 98.310475 
L 158.00771 98.424497 
L 158.685203 97.42286 
L 159.362695 96.677542 
L 160.040188 96.411026 
L 160.717681 98.868536 
L 161.395174 102.087587 
L 162.072667 97.853921 
L 162.750159 92.178751 
L 163.427652 93.737522 
L 164.105145 95.643923 
L 164.782638 94.325712 
L 165.460131 94.309489 
L 166.815116 99.719534 
L 167.492609 98.676645 
L 168.170102 99.084067 
L 168.847594 95.41217 
L 169.525087 95.133603 
L 170.20258 92.164846 
L 170.880073 91.061701 
L 171.557566 91.642011 
L 172.235058 90.502712 
L 172.912551 93.229519 
L 173.590044 93.860351 
L 174.267537 94.823981 
L 174.94503 98.719287 
L 175.622522 96.230722 
L 176.300015 96.328059 
L 176.977508 92.581074 
L 177.655001 90.83551 
L 178.332494 96.311836 
L 179.009986 93.954907 
L 179.687479 94.140309 
L 180.364972 96.175565 
L 181.719958 98.580236 
L 182.39745 100.157547 
L 183.074943 97.187399 
L 183.752436 97.634683 
L 184.429929 98.631685 
L 185.107421 102.268818 
L 185.784914 102.107982 
L 186.462407 104.386578 
L 187.1399 104.339764 
L 187.817393 105.540709 
L 188.494885 104.880212 
L 189.172378 108.059865 
L 189.849871 107.401686 
L 190.527364 108.309695 
L 191.204857 111.482395 
L 191.882349 110.972538 
L 192.559842 109.920379 
L 193.237335 112.378353 
L 193.914828 109.430917 
L 194.592321 109.022568 
L 195.269813 108.108533 
L 195.947306 108.885833 
L 196.624799 110.91321 
L 197.302292 114.422879 
L 197.979784 112.410335 
L 198.657277 113.852303 
L 199.33477 111.104638 
L 200.012263 109.798477 
L 200.689756 109.115269 
L 201.367248 113.062024 
L 202.044741 114.73899 
L 202.722234 114.122063 
L 203.399727 111.803142 
L 204.07722 110.997104 
L 204.754712 106.889512 
L 205.432205 105.021582 
L 206.109698 107.692768 
L 206.787191 109.694652 
L 207.464684 110.034865 
L 208.819669 109.931967 
L 209.497162 113.492158 
L 210.174655 111.161649 
L 210.852148 110.626299 
L 211.52964 111.919018 
L 212.207133 110.220731 
L 212.884626 107.01883 
L 213.562119 111.641841 
L 214.239611 108.990586 
L 214.917104 107.815134 
L 215.594597 110.817264 
L 216.27209 110.148424 
L 216.949583 111.348905 
L 217.627075 113.750331 
L 218.304568 115.735992 
L 218.982061 113.011966 
L 219.659554 112.80756 
L 221.014539 113.912095 
L 221.692032 112.386232 
L 222.369525 111.652039 
L 223.047018 108.631368 
L 223.724511 108.217457 
L 224.402003 107.95743 
L 225.079496 106.225771 
L 225.756989 108.561842 
L 226.434482 106.023219 
L 227.111975 102.881573 
L 227.789467 103.450296 
L 228.46696 102.949245 
L 229.144453 102.265574 
L 229.821946 103.470226 
L 230.499438 105.415562 
L 231.176931 103.56988 
L 231.854424 107.452208 
L 232.531917 103.936514 
L 233.886902 108.857559 
L 234.564395 106.204913 
L 235.241888 106.513145 
L 235.919381 104.481597 
L 236.596874 100.443067 
L 237.274366 97.847432 
L 237.951859 94.010527 
L 238.629352 92.945854 
L 239.306845 96.280781 
L 239.984338 90.75486 
L 240.66183 91.524744 
L 241.339323 91.096464 
L 242.016816 87.796763 
L 243.371801 78.705551 
L 244.049294 76.120114 
L 244.726787 78.946575 
L 245.40428 81.004079 
L 246.081773 79.27242 
L 246.759265 76.47794 
L 247.436758 74.638748 
L 248.114251 77.194521 
L 249.469237 79.939405 
L 250.146729 81.150547 
L 250.824222 79.561184 
L 251.501715 81.863419 
L 252.179208 82.470149 
L 252.856701 80.452043 
L 253.534193 77.404489 
L 254.211686 73.586125 
L 255.566672 71.145765 
L 256.244165 73.890185 
L 256.921657 76.159512 
L 257.59915 75.561125 
L 258.276643 74.236888 
L 258.954136 72.301749 
L 259.631628 71.136031 
L 260.309121 73.538847 
L 260.986614 74.148822 
L 261.664107 75.810955 
L 262.3416 78.393612 
L 263.019092 76.251749 
L 263.696585 76.974819 
L 264.374078 76.572032 
L 265.051571 77.452694 
L 265.729064 77.908784 
L 266.406556 75.994967 
L 267.761542 80.64208 
L 268.439035 79.424913 
L 269.116528 79.583432 
L 269.79402 76.039927 
L 270.471513 77.680276 
L 271.149006 76.280023 
L 271.826499 76.681883 
L 272.503992 83.923705 
L 273.181484 84.157775 
L 273.858977 81.427724 
L 274.53647 82.149403 
L 275.213963 84.012698 
L 275.891455 85.359183 
L 276.568948 84.110034 
L 277.246441 83.522772 
L 277.923934 83.526016 
L 278.601427 83.173288 
L 279.278919 86.684811 
L 280.633905 91.464488 
L 281.311398 95.380188 
L 281.988891 97.127143 
L 282.666383 95.086789 
L 283.343876 94.218178 
L 284.021369 91.642011 
L 284.698862 90.409547 
L 285.376355 98.255781 
L 286.053847 97.026099 
L 286.73134 102.55202 
L 287.408833 102.513086 
L 288.086326 101.852126 
L 288.763818 104.503845 
L 289.441311 105.486942 
L 290.796297 113.525994 
L 291.47379 110.663843 
L 292.151282 112.928535 
L 292.828775 113.006404 
L 293.506268 109.827214 
L 294.183761 109.304843 
L 294.861254 109.180623 
L 295.538746 105.085546 
L 296.216239 109.045743 
L 296.893732 106.761584 
L 297.571225 109.836485 
L 298.248718 111.516231 
L 298.92621 112.374645 
L 299.603703 111.844857 
L 300.281196 107.530541 
L 300.958689 107.414201 
L 301.636182 103.686684 
L 302.313674 100.583509 
L 302.991167 100.716072 
L 303.66866 101.502642 
L 304.346153 99.251393 
L 305.023645 98.390198 
L 305.701138 100.45929 
L 306.378631 103.58842 
L 307.056124 99.734366 
L 307.733617 99.964265 
L 308.411109 98.355435 
L 309.088602 99.617099 
L 309.766095 100.229391 
L 310.443588 103.894335 
L 311.121081 100.374468 
L 311.798573 101.607395 
L 312.476066 102.096857 
L 313.153559 103.693173 
L 313.831052 106.463086 
L 314.508545 106.150683 
L 315.186037 103.591665 
L 315.86353 102.209489 
L 316.541023 100.19231 
L 317.218516 99.868783 
L 317.896008 101.674603 
L 319.250994 95.800125 
L 319.928487 91.385228 
L 320.60598 90.305259 
L 321.283472 90.755787 
L 321.960965 90.697385 
L 322.638458 89.721241 
L 323.315951 89.804672 
L 323.993444 89.149274 
L 324.670936 88.875805 
L 325.348429 88.874415 
L 326.025922 90.893448 
L 326.703415 93.353739 
L 328.0584 99.726023 
L 329.413386 95.609624 
L 330.090879 90.441529 
L 330.768372 88.981948 
L 331.445864 88.076257 
L 332.123357 89.794011 
L 332.80085 90.194944 
L 333.478343 85.761507 
L 334.155835 83.758696 
L 334.833328 85.256749 
L 335.510821 84.932294 
L 336.188314 83.764722 
L 336.865807 84.258356 
L 337.543299 86.566617 
L 338.220792 86.647731 
L 338.898285 91.764376 
L 339.575778 91.252665 
L 340.253271 91.01396 
L 340.930763 92.406796 
L 341.608256 91.776891 
L 342.285749 91.629496 
L 342.963242 90.011396 
L 343.640735 92.594516 
L 344.318227 89.302231 
L 344.99572 92.809119 
L 345.673213 91.389863 
L 347.028199 93.013989 
L 347.705691 91.733785 
L 349.060677 93.713883 
L 349.73817 90.217656 
L 351.093155 91.430188 
L 351.770648 93.942392 
L 352.448141 91.101562 
L 353.125634 94.011918 
L 353.803126 96.224233 
L 354.480619 93.502525 
L 355.835605 91.827413 
L 356.513098 91.562751 
L 357.19059 89.724949 
L 358.545576 98.672473 
L 359.223069 95.693519 
L 359.900562 95.759337 
L 360.578054 93.426046 
L 361.255547 92.483738 
L 361.93304 89.195161 
L 362.610533 87.574743 
L 363.288025 86.499872 
L 363.965518 88.843823 
L 365.320504 89.312428 
L 365.997997 91.370859 
L 366.675489 92.227882 
L 367.352982 94.226985 
L 368.030475 92.639476 
L 368.707968 96.069422 
L 369.385461 94.001721 
L 370.062953 94.299292 
L 370.740446 90.639447 
L 371.417939 92.657553 
L 372.095432 93.369035 
L 372.772925 91.845026 
L 373.450417 94.015626 
L 374.12791 93.344006 
L 374.805403 93.288848 
L 375.482896 93.59847 
L 376.837881 96.798518 
L 377.515374 93.787117 
L 378.192867 94.629308 
L 378.87036 92.813754 
L 379.547852 92.644575 
L 380.902838 94.315978 
L 381.580331 93.383867 
L 382.257824 92.133791 
L 382.935316 91.15023 
L 383.612809 92.950952 
L 384.290302 90.63203 
L 384.967795 88.836407 
L 385.645288 87.501046 
L 386.32278 87.942767 
L 387.677766 84.824297 
L 388.355259 83.64282 
L 389.032752 87.396757 
L 389.710244 88.428058 
L 390.387737 90.361343 
L 391.06523 90.569921 
L 391.742723 90.425307 
L 392.420216 93.009354 
L 393.097708 90.164353 
L 393.775201 86.629191 
L 394.452694 84.172144 
L 395.130187 86.039147 
L 395.807679 88.563866 
L 396.485172 88.969897 
L 397.840158 85.034729 
L 398.517651 88.380317 
L 399.195143 85.831033 
L 399.872636 85.179807 
L 400.550129 86.29732 
L 401.227622 86.071129 
L 401.905115 84.664388 
L 402.582607 87.81623 
L 403.2601 84.261601 
L 403.937593 83.853715 
L 404.615086 83.136671 
L 405.292579 81.617298 
L 405.970071 82.967491 
L 406.647564 83.829613 
L 407.325057 84.294973 
L 408.00255 82.416846 
L 409.357535 85.782828 
L 410.035028 81.65067 
L 410.712521 82.928093 
L 411.390014 82.477565 
L 412.067506 83.286847 
L 412.744999 82.733884 
L 413.422492 81.169087 
L 414.099985 81.487052 
L 414.777478 83.743401 
L 415.45497 84.088713 
L 416.132463 86.79837 
L 416.809956 87.97614 
L 417.487449 88.718213 
L 418.164942 88.868853 
L 418.842434 89.799573 
L 419.519927 91.146522 
L 420.19742 89.527959 
L 420.874913 90.629713 
L 421.552406 87.027806 
L 422.229898 84.909582 
L 422.907391 86.235674 
L 423.584884 86.231966 
L 424.939869 81.690532 
L 425.617362 85.60067 
L 426.294855 84.35013 
L 426.972348 85.172854 
L 428.327333 80.406619 
L 430.359812 78.576233 
L 431.037305 76.890461 
L 431.714797 76.758362 
L 432.39229 73.480909 
L 433.069783 73.123546 
L 433.747276 72.298968 
L 434.424769 72.243811 
L 435.102261 72.735128 
L 435.779754 73.375693 
L 436.457247 74.254964 
L 437.13474 78.690256 
L 437.812233 80.584606 
L 438.489725 79.188988 
L 439.167218 81.023083 
L 439.844711 80.160034 
L 440.522204 79.102776 
L 441.199696 78.583649 
L 441.877189 81.885204 
L 442.554682 81.970026 
L 443.232175 81.223317 
L 443.909668 77.95189 
L 444.58716 76.381995 
L 445.942146 76.142825 
L 446.619639 75.225083 
L 447.297132 71.460485 
L 447.974624 69.785374 
L 448.652117 65.600376 
L 449.32961 62.320606 
L 450.007103 59.867731 
L 450.684596 61.18826 
L 451.362088 62.21539 
L 452.039581 59.255439 
L 452.717074 61.220705 
L 454.072059 63.25179 
L 454.749552 67.457182 
L 455.427045 67.731578 
L 456.104538 68.749901 
L 456.782031 65.348229 
L 457.459523 64.046703 
L 458.137016 62.117127 
L 458.814509 64.362351 
L 459.492002 64.616816 
L 460.169495 63.833027 
L 460.846987 63.521087 
L 462.201973 59.136781 
L 463.556959 61.051989 
L 464.234451 57.13258 
L 464.911944 55.8 
L 465.589437 59.339334 
L 466.26693 58.968065 
L 466.944423 57.562714 
L 467.621915 61.026496 
L 468.299408 62.850857 
L 468.976901 66.529706 
L 469.654394 68.655346 
L 471.009379 66.154729 
L 471.686872 65.836301 
L 472.364365 65.058537 
L 473.041858 64.089809 
L 473.71935 63.323633 
L 474.396843 62.877277 
L 475.074336 64.744743 
L 475.751829 63.667555 
L 476.429322 67.065056 
L 477.106814 68.358238 
L 477.784307 62.783649 
L 478.4618 64.807317 
L 479.139293 64.929219 
L 479.816786 66.208033 
L 480.494278 68.433326 
L 481.171771 67.918371 
L 481.849264 66.051368 
L 482.526757 71.660257 
L 483.20425 71.346463 
L 483.881742 70.564064 
L 484.559235 71.270911 
L 485.236728 70.281789 
L 485.914221 67.734359 
L 486.591713 68.413395 
L 487.269206 67.539223 
L 487.946699 69.027078 
L 488.624192 67.23748 
L 489.301685 67.773293 
L 491.334163 66.424954 
L 492.011656 67.664369 
L 492.689149 66.870847 
L 493.366641 66.286829 
L 494.044134 66.118576 
L 494.721627 67.637486 
L 496.076613 68.950136 
L 496.754105 70.330457 
L 497.431598 69.80994 
L 498.109091 70.046328 
L 498.109091 70.046328 
" clip-path="url(#pa281e88910)" style="fill: none; stroke: #4c72b0; stroke-width: 1.5; stroke-linecap: round"/>
   </g>
   <g id="patch_3">
    <path d="M 72 320.4 
L 72 43.2 
" style="fill: none; stroke: #cccccc; stroke-width: 1.25; stroke-linejoin: miter; stroke-linecap: square"/>
   </g>
   <g id="patch_4">
    <path d="M 518.4 320.4 
L 518.4 43.2 
" style="fill: none; stroke: #cccccc; stroke-width: 1.25; stroke-linejoin: miter; stroke-linecap: square"/>
   </g>
   <g id="patch_5">
    <path d="M 72 320.4 
L 518.4 320.4 
" style="fill: none; stroke: #cccccc; stroke-width: 1.25; stroke-linejoin: miter; stroke-linecap: square"/>
   </g>
   <g id="patch_6">
    <path d="M 72 43.2 
L 518.4 43.2 
" style="fill: none; stroke: #cccccc; stroke-width: 1.25; stroke-linejoin: miter; stroke-linecap: square"/>
   </g>
   <g id="text_16">
    <!-- Elo Rating Progression -->
    <g style="fill: #262626" transform="translate(228.175312 37.2) scale(0.12 -0.12)">
     <defs>
      <path id="DejaVuSans-50" d="M 1259 4147 
L 1259 2394 
L 2053 2394 
Q 2494 2394 2734 2622 
Q 2975 2850 2975 3272 
Q 2975 3691 2734 3919 
Q 2494 4147 2053 4147 
L 1259 4147 
z
M 628 4666 
L 2053 4666 
Q 2838 4666 3239 4311 
Q 3641 3956 3641 3272 
Q 3641 2581 3239 2228 
Q 2838 1875 2053 1875 
L 1259 1875 
L 1259 0 
L 628 0 
L 628 4666 
z
" transform="scale(0.015625)"/>
      <path id="DejaVuSans-72" d="M 2631 2963 
Q 2534 3019 2420 3045 
Q 2306 3072 2169 3072 
Q 1681 3072 1420 2755 
Q 1159 2438 1159 1844 
L 1159 0 
L 581 0 
L 581 3500 
L 1159 3500 
L 1159 2956 
Q 1341 3275 1631 3429 
Q 1922 3584 2338 3584 
Q 2397 3584 2469 3576 
Q 2541 3569 2628 3553 
L 2631 2963 
z
" transform="scale(0.015625)"/>
      <path id="DejaVuSans-73" d="M 2834 3397 
L 2834 2853 
Q 2591 2978 2328 3040 
Q 2066 3103 1784 3103 
Q 1356 3103 1142 2972 
Q 928 2841 928 2578 
Q 928 2378 1081 2264 
Q 1234 2150 1697 2047 
L 1894 2003 
Q 2506 1872 2764 1633 
Q 3022 1394 3022 966 
Q 3022 478 2636 193 
Q 2250 -91 1575 -91 
Q 1294 -91 989 -36 
Q 684 19 347 128 
L 347 722 
Q 666 556 975 473 
Q 1284 391 1588 391 
Q 1994 391 2212 530 
Q 2431 669 2431 922 
Q 2431 1156 2273 1281 
Q 2116 1406 1581 1522 
L 1381 1569 
Q 847 1681 609 1914 
Q 372 2147 372 2553 
Q 372 3047 722 3315 
Q 1072 3584 1716 3584 
Q 2034 3584 2315 3537 
Q 2597 3491 2834 3397 
z
" transform="scale(0.015625)"/>
     </defs>
     <use xlink:href="#DejaVuSans-45"/>
     <use xlink:href="#DejaVuSans-6c" transform="translate(63.183594 0)"/>
     <use xlink:href="#DejaVuSans-6f" transform="translate(90.966797 0)"/>
     <use xlink:href="#DejaVuSans-20" transform="translate(152.148438 0)"/>
     <use xlink:href="#DejaVuSans-52" transform="translate(183.935547 0)"/>
     <use xlink:href="#DejaVuSans-61" transform="translate(251.167969 0)"/>
     <use xlink:href="#DejaVuSans-74" transform="translate(312.447266 0)"/>
     <use xlink:href="#DejaVuSans-69" transform="translate(351.65625 0)"/>
     <use xlink:href="#DejaVuSans-6e" transform="translate(379.439453 0)"/>
     <use xlink:href="#DejaVuSans-67" transform="translate(442.818359 0)"/>
     <use xlink:href="#DejaVuSans-20" transform="translate(506.294922 0)"/>
     <use xlink:href="#DejaVuSans-50" transform="translate(538.082031 0)"/>
     <use xlink:href="#DejaVuSans-72" transform="translate(596.634766 0)"/>
     <use xlink:href="#DejaVuSans-6f" transform="translate(635.498047 0)"/>
     <use xlink:href="#DejaVuSans-67" transform="translate(696.679688 0)"/>
     <use xlink:href="#DejaVuSans-72" transform="translate(760.15625 0)"/>
     <use xlink:href="#DejaVuSans-65" transform="translate(799.019531 0)"/>
     <use xlink:href="#DejaVuSans-73" transform="translate(860.542969 0)"/>
     <use xlink:href="#DejaVuSans-73" transform="translate(912.642578 0)"/>
     <use xlink:href="#DejaVuSans-69" transform="translate(964.742188 0)"/>
     <use xlink:href="#DejaVuSans-6f" transform="translate(992.525391 0)"/>
     <use xlink:href="#DejaVuSans-6e" transform="translate(1053.707031 0)"/>
    </g>
   </g>
   <g id="legend_1">
    <g id="patch_7">
     <path d="M 79.7 68.145937 
L 170.592656 68.145937 
Q 172.792656 68.145937 172.792656 65.945937 
L 172.792656 50.9 
Q 172.792656 48.7 170.592656 48.7 
L 79.7 48.7 
Q 77.5 48.7 77.5 50.9 
L 77.5 65.945937 
Q 77.5 68.145937 79.7 68.145937 
z
" style="fill: #ffffff; opacity: 0.8; stroke: #cccccc; stroke-linejoin: miter"/>
    </g>
    <g id="line2d_15">
     <path d="M 81.9 57.608281 
L 92.9 57.608281 
L 103.9 57.608281 
" style="fill: none; stroke: #4c72b0; stroke-width: 1.5; stroke-linecap: round"/>
    </g>
    <g id="text_17">
     <!-- Elo Rating -->
     <g style="fill: #262626" transform="translate(112.7 61.458281) scale(0.11 -0.11)">
      <use xlink:href="#DejaVuSans-45"/>
      <use xlink:href="#DejaVuSans-6c" transform="translate(63.183594 0)"/>
      <use xlink:href="#DejaVuSans-6f" transform="translate(90.966797 0)"/>
      <use xlink:href="#DejaVuSans-20" transform="translate(152.148438 0)"/>
      <use xlink:href="#DejaVuSans-52" transform="translate(183.935547 0)"/>
      <use xlink:href="#DejaVuSans-61" transform="translate(251.167969 0)"/>
      <use xlink:href="#DejaVuSans-74" transform="translate(312.447266 0)"/>
      <use xlink:href="#DejaVuSans-69" transform="translate(351.65625 0)"/>
      <use xlink:href="#DejaVuSans-6e" transform="translate(379.439453 0)"/>
      <use xlink:href="#DejaVuSans-67" transform="translate(442.818359 0)"/>
     </g>
    </g>
   </g>
  </g>
 </g>
 <defs>
  <clipPath id="pa281e88910">
   <rect x="72" y="43.2" width="446.4" height="277.2"/>
  </clipPath>
 </defs>
</svg>
